<?xml version="1.0" encoding="utf-8"?>
<!-- Generator: Adobe Illustrator 25.0.0, SVG Export Plug-In . SVG Version: 6.00 Build 0)  -->
<svg version="1.1" id="Ebene_1" xmlns="http://www.w3.org/2000/svg" xmlns:xlink="http://www.w3.org/1999/xlink" x="0px" y="0px"
	 viewBox="0 0 1709 514" style="enable-background:new 0 0 1709 514;" xml:space="preserve">
<style type="text/css">
	.st0{fill:#FFFFFF;}
</style>
<g>
	<path class="st0" d="M131.5,221.9c-0.8-0.8-1.2-1.8-1.2-2.9l-0.1-2.8c18-1.3,34.8-9.1,47.6-21.8c37.2-37.2,27.4-103.5-29.4-125.4
		c-15.4-5.9-32.5-5.9-47.9,0C43.8,90.9,34,157.2,71.2,194.4c13.2,13.2,30.2,20.5,47.6,21.8l-0.1,2.8c0,1.1-0.5,2.1-1.2,2.9l-4,4
		c-0.8,0.8-1.2,1.9-1.2,3l0.1,220.6h24.4l0.1-220.6c0-1.1-0.4-2.2-1.2-3L131.5,221.9z M110.4,192c-50.9-17.5-50.9-84.3,0-101.7
		c9.1-3.1,19-3.1,28.1,0c50.9,17.5,50.9,84.3,0,101.7C129.4,195.1,119.5,195.1,110.4,192z"/>
	<path class="st0" d="M239.5,317.6c-5.2,0-8.9,2.1-8.9,6.6c0,3.1,1.5,5,3.9,5h42.3c2.3,0,2.7-1.2,2.7-2.9c0-3.1-1.9-4.8-6.2-6
		l-9.3-2.7v-56.2c12.4-11.2,26.3-17.2,42.1-17.2c1.9-2.1,3.1-5.4,3.1-8.9c0-5.4-3.5-9.8-10.4-9.8c-11.6,0-25.7,11-35.1,22.8H263
		v-20.7h-23.4c-5.2,0-8.9,2.1-8.9,6.8c0,3.1,1.5,4.8,3.9,4.8h10.2v78.4H239.5z"/>
	<path class="st0" d="M413.2,269c0-26.3-17.6-43.6-44.8-43.6c-29.7,0-49.2,20.3-49.2,53.9c0,33.4,21.6,52.5,51.2,52.5
		c11.2,0,21.4-2.5,30.1-7.9c4.4-2.7,7.3-5.2,7.3-8.7s-2.5-5.8-5.4-5.8c-1.5,0-2.5,0.4-5,2.1c-8.1,5.2-15.8,7.9-26.1,7.9
		c-17,0-32.6-11.2-32.6-35.9h71.2C411.7,279.6,413.2,274,413.2,269z M392.8,271.1h-53.9c1.5-21,13.3-33.2,29.2-33.2
		c15.1,0,25.5,9.5,25.5,27.2C393.7,267,393.5,269.5,392.8,271.1z"/>
	<path class="st0" d="M467.7,271.1c-19.1,2.9-38.8,10-38.8,32.2c0,19.3,15.6,28.6,31.9,28.6c14.7,0,26.6-6.6,33.6-15.8h0.8v13.1
		h30.1c2.1,0,2.7-1.2,2.7-2.9c0-3.1-2.1-4.6-6.4-6l-7.3-2.3v-58.9c0-22.2-16.8-33.6-38.6-33.6c-14.3,0-30.3,5.2-41.1,11.6v20.3
		c0,1.9,1.2,3.3,3.7,3.3c3.5,0,5.4-2.5,6.4-6.8l2.1-8.9c6-3.7,17.4-7.1,25.7-7.1c14.1,0,22.2,8.3,22.2,20.7v8.3L467.7,271.1z
		 M494.9,294.2c0,13.7-13.7,24.9-28,24.9c-10.8,0-18.5-5.8-18.5-16.8c0-12,9.5-17.4,23.2-19.7l23.2-3.7V294.2z"/>
	<path class="st0" d="M585.8,225.5c-27.8,0-49,20.3-49,53.9c0,36.5,21.8,52.5,46.5,52.5c15.1,0,25.3-7.1,31.5-15.6h0.8v12.9h29.9
		c2.3,0,2.9-1.2,2.9-2.9c0-3.1-1.9-4.6-6.4-6l-8.1-2.7V181.9h-24.1c-5.4,0-8.9,2.1-8.9,6.8c0,3.1,1.5,4.8,3.9,4.8h10V234
		C606.7,228.8,597,225.5,585.8,225.5z M614.6,293.7c0,15.6-12,25.7-26.8,25.7c-19.9,0-31.5-14.1-31.5-40c0-27.6,14.9-41.5,33-41.5
		c9.5,0,18.7,3.5,25.3,9.1V293.7z"/>
	<path class="st0" d="M991.7,319.5c-8.7,0-19.3-2.1-24.5-6.4l-1.9-9.1c-1-4.6-2.9-7.1-6.4-7.1c-2.5,0-3.7,1.7-3.7,3.5v20.5
		c7.7,6.4,24.3,11,38.2,11c20.1,0,40-6.8,40-26.8c0-16.2-10-23.2-29.3-32.2c-20.3-9.3-28.8-12.4-28.8-22c0-9.5,9.8-13.1,19.9-13.1
		c8.3,0,16.8,2.5,21.6,6.4l2.1,9.7c1,4.6,2.9,6.8,6.4,6.8c2.5,0,3.7-1.5,3.7-3.3v-19.7c-6.6-6-21.2-12.4-36.1-12.4
		c-19.5,0-37.1,8.9-37.1,27.2c0,14.9,10.6,22.6,30.3,31.5c20.5,8.9,27.8,11.8,27.8,22C1013.9,316.1,1003.7,319.5,991.7,319.5z"/>
	<path class="st0" d="M1143.3,269c0-26.3-17.6-43.6-44.8-43.6c-29.7,0-49.2,20.3-49.2,53.9c0,33.4,21.6,52.5,51.2,52.5
		c11.2,0,21.4-2.5,30.1-7.9c4.4-2.7,7.3-5.2,7.3-8.7s-2.5-5.8-5.4-5.8c-1.5,0-2.5,0.4-5,2.1c-8.1,5.2-15.8,7.9-26.1,7.9
		c-17,0-32.6-11.2-32.6-35.9h71.2C1141.9,279.6,1143.3,274,1143.3,269z M1123,271.1h-53.9c1.5-21,13.3-33.2,29.3-33.2
		c15.1,0,25.5,9.5,25.5,27.2C1123.8,267,1123.6,269.5,1123,271.1z"/>
	<path class="st0" d="M1197.9,271.1c-19.1,2.9-38.8,10-38.8,32.2c0,19.3,15.6,28.6,31.9,28.6c14.7,0,26.6-6.6,33.6-15.8h0.8v13.1
		h30.1c2.1,0,2.7-1.2,2.7-2.9c0-3.1-2.1-4.6-6.4-6l-7.3-2.3v-58.9c0-22.2-16.8-33.6-38.6-33.6c-14.3,0-30.3,5.2-41.1,11.6v20.3
		c0,1.9,1.2,3.3,3.7,3.3c3.5,0,5.4-2.5,6.4-6.8l2.1-8.9c6-3.7,17.4-7.1,25.7-7.1c14.1,0,22.2,8.3,22.2,20.7v8.3L1197.9,271.1z
		 M1225.1,294.2c0,13.7-13.7,24.9-28,24.9c-10.8,0-18.5-5.8-18.5-16.8c0-12,9.5-17.4,23.2-19.7l23.2-3.7V294.2z"/>
	<path class="st0" d="M1280.2,317.6c-5.2,0-8.9,2.1-8.9,6.6c0,3.1,1.5,5,3.9,5h42.3c2.3,0,2.7-1.2,2.7-2.9c0-3.1-1.9-4.8-6.2-6
		l-9.3-2.7v-56.2c12.4-11.2,26.3-17.2,42.1-17.2c1.9-2.1,3.1-5.4,3.1-8.9c0-5.4-3.5-9.8-10.4-9.8c-11.6,0-25.7,11-35.1,22.8h-0.8
		v-20.7h-23.4c-5.2,0-8.9,2.1-8.9,6.8c0,3.1,1.5,4.8,3.9,4.8h10.2v78.4H1280.2z"/>
	<path class="st0" d="M1407,237.9c8.1,0,16.8,2.5,21.6,6.4l2.1,10c1,4.6,2.9,6.8,6.4,6.8c2.5,0,3.7-1.5,3.7-3.3v-19.9
		c-6.6-6-21.2-12.4-36.1-12.4c-28.2,0-49.4,18.9-49.4,52.9c0,33.2,20.5,53.5,51.7,53.5c10.6,0,20.3-2.5,28-7.3
		c4.4-2.9,7.5-5.8,7.5-9.1c0-3.5-2.3-6-5.2-6c-1.5,0-2.3,0.8-4.6,2.3c-7.1,4.8-14.7,7.7-24.5,7.7c-19.3,0-33.4-13.9-33.4-40.9
		S1388.5,237.9,1407,237.9z"/>
	<path class="st0" d="M1464.2,317.6c-5.2,0-8.9,2.1-8.9,6.6c0,3.1,1.5,5,3.9,5h42.3c2.3,0,2.7-1.2,2.7-2.9c0-3.1-1.9-4.8-6.2-6
		l-9.3-2.7v-63.9c7.9-8.9,18.9-15.4,29.5-15.4c13.7,0,20.7,8.3,20.7,20.5v58.7h-5.2c-5.2,0-8.9,2.1-8.9,6.6c0,3.1,1.5,5,3.9,5h42.3
		c2.3,0,2.7-1.2,2.7-2.9c0-3.1-1.9-4.8-6.2-6l-9.3-2.7v-60.2c0-20.3-14.9-31.9-34-31.9c-13.9,0-25.7,6.8-35.5,15.8l-0.6-0.2v-59.1
		h-23.9c-5.2,0-8.9,2.1-8.9,6.8c0,3.1,1.5,4.8,3.9,4.8h10.2v124.1H1464.2z"/>
	<path class="st0" d="M697,313.3c0,40.5,36.3,64.7,80.6,64.7c31.1,0,55.7-12.8,70.9-29.8l25.6,25.3h51.5c3.8,0,4.8-2.4,4.8-5.2
		c0-5.2-3.8-8.3-11.8-10.4l-18-4.5l-31.5-30.8c12.8-18.7,19.4-41.5,22.1-61.9l23.5-6.6c6.6-1.7,9.3-4.8,9.3-10c0-2.8-1-5.2-4.5-5.2
		h-59.5c-9.7,0-15.9,4.2-15.9,12.1c0,5.2,2.8,8.6,7.3,8.6h18.3c-2.1,17.6-5.5,33.9-14.9,49.1L794.5,250
		c31.1-13.1,52.2-31.8,52.2-59.5c0-30.1-24.9-54.7-65.4-54.7c-37,0-65.7,20.1-65.7,52.9c0,23.5,12.5,40.1,31.8,59.5
		C719.4,260.4,697,280.1,697,313.3z M781.4,156.6c18.3,0,32.2,11.8,32.2,33.2c0,20.4-16.6,35.3-36,45
		c-14.9-13.5-28.7-29.4-28.7-47.7C748.8,167,762.7,156.6,781.4,156.6z M763,265.2l70.9,68.5c-12.1,12.8-30.1,23.2-52.9,23.2
		c-27,0-50.9-14.5-50.9-43.9C730.2,287.4,747.1,273.2,763,265.2z"/>
	<path class="st0" d="M161.6,64.4c12,5.8,22.5,14.5,30.5,25h1442.8v335H144.5v25h1515.4v-385H161.6z"/>
</g>
</svg>
