<svg id="MERRIWEATHER" xmlns="http://www.w3.org/2000/svg" viewBox="0 0 187.09 45.35"><defs><style>.cls-1{fill:#fff;}</style></defs><path class="cls-1" d="M3.2,7.27H4.4V1.58H3.2Zm163.08,0h1.2V1.58h-1.2Zm-129.51,0H38V1.58h-1.2ZM3.2,25.18H4.4V11.53H3.2ZM47,12.13c1.69,0,4.52.32,4.52,2.5h1.2c0-1.11-.56-3.7-5.72-3.7s-5.73,2.59-5.73,3.7a3.5,3.5,0,0,0,2.36,3l5.91,2.47c1.22.47,2,1.25,2,2,0,2.17-2.83,2.49-4.52,2.49s-4.53-.32-4.53-2.49h-1.2c0,1.11.56,3.69,5.73,3.69s5.72-2.58,5.72-3.69c0-1.32-1-2.5-2.73-3.16l-5.87-2.46c-1-.48-1.65-1.19-1.65-1.9,0-2.18,2.84-2.5,4.53-2.5m97.67-1.27a6.27,6.27,0,0,0-5.74,3V11.53h-1.2V25.25h1.2V18.36c0-3.83,2.25-6.3,5.74-6.3,3.75,0,5.49,2,5.49,6.3v6.89h1.2V18.36c0-6.2-3.44-7.5-6.69-7.5M178,24.65a6.3,6.3,0,1,1,6.29-6.29A6.3,6.3,0,0,1,178,24.65m6.29-13.12v2.78a7.5,7.5,0,1,0,0,8.09v2.85h1.2V11.53ZM97.47,20.38c0,2.6-2,4.27-5.12,4.27S87.23,23,87.23,20.38V11.53H86v8.85c0,2.72,1.66,5.47,6.32,5.47,2.7,0,4.11-.88,5.12-2.11v1.44h1.19V11.53H97.47Zm-77.91,0c0,2.6-2,4.27-5.12,4.27S9.32,23,9.32,20.38V11.53H8.13v8.85c0,2.72,1.61,5.47,6.31,5.47,2.71,0,4.11-.88,5.12-2.11v1.44h1.2V11.53h-1.2Zm5.38-8.85h-.53V25.25H25.6V12.71h6.53v2.72h1.2V11.52H24.94Zm49.55,0h-.56V25.25h1.2V12.71h6.55v2.72h1.19V11.52H74.49ZM156,6.33h-1.2V25.1h7.51V23.9H156V13.08h6.31V11.89H156ZM109.35,24.65a6.3,6.3,0,1,1,6.3-6.29,6.29,6.29,0,0,1-6.3,6.29m6.41-10.17a7.5,7.5,0,1,0,0,7.75v2.95H117V6.33h-1.2Zm5.69,3.28a5.92,5.92,0,0,1,6.28-5.7c3.69,0,5.47,2.77,5.68,5.7Zm6.28-6.9a7.18,7.18,0,0,0-7.5,7.5c0,4.41,3.17,7.49,7.71,7.49a8.17,8.17,0,0,0,6.58-3.09l-1-.71a6.94,6.94,0,0,1-5.61,2.6c-3.68,0-6.22-2.26-6.49-5.7h13.18v-.59c0-4.42-2.84-7.5-6.9-7.5M63.52,24.65a6.3,6.3,0,1,1,6.3-6.29,6.3,6.3,0,0,1-6.3,6.29m0-13.79a7.49,7.49,0,0,0-6.41,3.62v-3H55.92V30.19h1.19v-8a7.49,7.49,0,1,0,6.41-11.37M166.28,25.18h1.2V11.53h-1.2Zm-129.51,0H38V11.53h-1.2Z"/><path class="cls-1" d="M3.2,7.27H4.4V1.58H3.2Zm163.08,0h1.2V1.58h-1.2Zm-129.51,0H38V1.58h-1.2ZM3.2,25.18H4.4V11.53H3.2ZM47,12.13c1.69,0,4.52.32,4.52,2.5h1.2c0-1.11-.56-3.7-5.72-3.7s-5.73,2.59-5.73,3.7a3.5,3.5,0,0,0,2.36,3l5.91,2.47c1.22.47,2,1.25,2,2,0,2.17-2.83,2.49-4.52,2.49s-4.53-.32-4.53-2.49h-1.2c0,1.11.56,3.69,5.73,3.69s5.72-2.58,5.72-3.69c0-1.32-1-2.5-2.73-3.16l-5.87-2.46c-1-.48-1.65-1.19-1.65-1.9C42.46,12.45,45.3,12.13,47,12.13Zm97.67-1.27a6.27,6.27,0,0,0-5.74,3V11.53h-1.2V25.25h1.2V18.36c0-3.83,2.25-6.3,5.74-6.3,3.75,0,5.49,2,5.49,6.3v6.89h1.2V18.36C151.35,12.16,147.91,10.86,144.66,10.86ZM178,24.65a6.3,6.3,0,1,1,6.29-6.29A6.3,6.3,0,0,1,178,24.65Zm6.29-13.12v2.78a7.5,7.5,0,1,0,0,8.09v2.85h1.2V11.53ZM97.47,20.38c0,2.6-2,4.27-5.12,4.27S87.23,23,87.23,20.38V11.53H86v8.85c0,2.72,1.66,5.47,6.32,5.47,2.7,0,4.11-.88,5.12-2.11v1.44h1.19V11.53H97.47Zm-77.91,0c0,2.6-2,4.27-5.12,4.27S9.32,23,9.32,20.38V11.53H8.13v8.85c0,2.72,1.61,5.47,6.31,5.47,2.71,0,4.11-.88,5.12-2.11v1.44h1.2V11.53h-1.2Zm5.38-8.85h-.53V25.25H25.6V12.71h6.53v2.72h1.2V11.52H24.94Zm49.55,0h-.56V25.25h1.2V12.71h6.55v2.72h1.19V11.52H74.49ZM156,6.33h-1.2V25.1h7.51V23.9H156V13.08h6.31V11.89H156ZM109.35,24.65a6.3,6.3,0,1,1,6.3-6.29A6.29,6.29,0,0,1,109.35,24.65Zm6.41-10.17a7.5,7.5,0,1,0,0,7.75v2.95H117V6.33h-1.2Zm5.69,3.28a5.92,5.92,0,0,1,6.28-5.7c3.69,0,5.47,2.77,5.68,5.7Zm6.28-6.9a7.18,7.18,0,0,0-7.5,7.5c0,4.41,3.17,7.49,7.71,7.49a8.17,8.17,0,0,0,6.58-3.09l-1-.71a6.94,6.94,0,0,1-5.61,2.6c-3.68,0-6.22-2.26-6.49-5.7h13.18v-.59C134.63,13.94,131.79,10.86,127.73,10.86ZM63.52,24.65a6.3,6.3,0,1,1,6.3-6.29A6.3,6.3,0,0,1,63.52,24.65Zm0-13.79a7.49,7.49,0,0,0-6.41,3.62v-3H55.92V30.19h1.19v-8a7.49,7.49,0,1,0,6.41-11.37ZM166.28,25.18h1.2V11.53h-1.2Zm-129.51,0H38V11.53h-1.2Z"/><path class="cls-1" d="M4.29,35.42H5.42l2.5,7.1.64.11v.5H5.84v-.5l.86-.11L6.21,41h-3l-.48,1.52.89.11v.5H1.17v-.5l.63-.11Zm.64,1.65-.25-.91-.25.93-1,3.3H6Z"/><path class="cls-1" d="M15.43,44.06a2,2,0,0,0,.53-.85,4.34,4.34,0,0,0,.17-.91c0-.34,0-.88,0-1.6V36.13l-1-.14v-.51h3V36l-.94.14v4.65c0,.55,0,1,0,1.31a4.93,4.93,0,0,1-.09.85,2.42,2.42,0,0,1-.81,1.36,3.12,3.12,0,0,1-1.46.68l-.27-.44A2,2,0,0,0,15.43,44.06Z"/><path class="cls-1" d="M22.33,42.76a3,3,0,0,1-1.1-1.36,5.21,5.21,0,0,1-.37-2,4.58,4.58,0,0,1,.45-2.08,3.31,3.31,0,0,1,1.23-1.38,3.22,3.22,0,0,1,1.76-.49,3.05,3.05,0,0,1,2.46,1,4.28,4.28,0,0,1,.84,2.81,4.68,4.68,0,0,1-.45,2.11,3.56,3.56,0,0,1-1.26,1.42,3.33,3.33,0,0,1-1.79.5A3.12,3.12,0,0,1,22.33,42.76Zm.33-6a4.67,4.67,0,0,0-.58,2.55,4.56,4.56,0,0,0,.57,2.45,1.74,1.74,0,0,0,1.57.9,1.79,1.79,0,0,0,1.57-.9,4.77,4.77,0,0,0,.58-2.57,4.5,4.5,0,0,0-.56-2.43,1.76,1.76,0,0,0-1.57-.87A1.81,1.81,0,0,0,22.66,36.8Z"/><path class="cls-1" d="M31.54,42.41a3.76,3.76,0,0,1-.71-2.51V36.12L30.1,36v-.51h2.75V36l-.88.14V40a3.23,3.23,0,0,0,.5,2,1.74,1.74,0,0,0,1.44.62,1.6,1.6,0,0,0,1.4-.66,3.24,3.24,0,0,0,.47-1.92V36.13L34.92,36v-.51h2.4V36l-.75.13V40a3.34,3.34,0,0,1-.77,2.4,2.66,2.66,0,0,1-2,.79A2.84,2.84,0,0,1,31.54,42.41Z"/><path class="cls-1" d="M39.85,42.63l.86-.11v-6.4L39.9,36v-.5h1.35c.19,0,.46,0,.78,0s.62,0,.81,0a3.62,3.62,0,0,1,2.16.49,1.8,1.8,0,0,1,.64,1.54,2.4,2.4,0,0,1-.41,1.34,2,2,0,0,1-1.11.82,1.92,1.92,0,0,1,.61.6c.19.29.42.68.69,1.19s.38.67.49.85.22.27.33.29l.4.11v.5H45.22c-.11,0-.24-.12-.37-.35s-.32-.61-.55-1.1-.46-1-.64-1.29a1.56,1.56,0,0,0-.54-.62H41.81v2.76l1,.11v.5h-3Zm4.22-3.84a1.88,1.88,0,0,0,.39-1.29,1.57,1.57,0,0,0-.39-1.15,1.84,1.84,0,0,0-1.33-.4c-.22,0-.44,0-.66,0l-.27,0v3.19H43A1.33,1.33,0,0,0,44.07,38.79Z"/><path class="cls-1" d="M49.87,36.12,49.05,36v-.51H51l3.44,5L55,41.6V36.12L54.08,36v-.51h2.43V36l-.83.13v7h-.81L51.37,38l-.8-1.36v5.89l1,.11v.5h-2.5v-.5l.82-.12Z"/><path class="cls-1" d="M60,36.12,59.15,36v-.51H64.4l.14,1.6H64l-.3-1L61.1,36v2.9l1.72,0L63,38h.57V40.4H63l-.14-.88-1.72,0v3.07l2.9-.11.55-1.3.61.19-.3,1.79H59.14v-.5l.86-.11Z"/><path class="cls-1" d="M70.09,40.16l-2.32-4L67.16,36v-.51h2.68V36l-.81.13,1.45,2.76.33.78.37-.78,1.37-2.76L71.71,36v-.51h2.35V36l-.67.13-2.16,4v2.36l1.16.12v.5H69v-.5l1.12-.11Z"/><path class="cls-1" d="M83.15,36l-1.77.06L81,38.24h-.68l.18-2.76h6.41l.13,2.76h-.65l-.34-2.15L84.29,36v6.49l1.46.11v.5H81.81v-.5l1.34-.11Z"/><path class="cls-1" d="M90.55,36.12,89.73,36v-.51h2.81V36l-.89.13v2.77h3.63V36.12L94.44,36v-.51H97.2V36l-.81.13v6.4l.81.11v.5H94.43v-.5l.85-.11v-3H91.65v3l.9.11v.5H89.71v-.5l.84-.11Z"/><path class="cls-1" d="M100.11,42.63l.85-.11v-6.4l-.8-.14v-.5h1.35c.19,0,.45,0,.78,0s.61,0,.8,0a3.62,3.62,0,0,1,2.16.49,1.8,1.8,0,0,1,.64,1.54,2.39,2.39,0,0,1-.4,1.34,2.07,2.07,0,0,1-1.12.82,1.82,1.82,0,0,1,.61.6c.19.29.42.68.7,1.19s.37.67.49.85a.6.6,0,0,0,.32.29l.4.11v.5h-1.42c-.11,0-.23-.12-.37-.35s-.32-.61-.54-1.1-.47-1-.65-1.29a1.48,1.48,0,0,0-.54-.62h-1.31v2.76l1,.11v.5h-3Zm4.22-3.84a1.93,1.93,0,0,0,.38-1.29,1.57,1.57,0,0,0-.39-1.15A1.82,1.82,0,0,0,103,36c-.22,0-.44,0-.66,0l-.27,0v3.19h1.23A1.35,1.35,0,0,0,104.33,38.79Z"/><path class="cls-1" d="M110.61,42.76a3,3,0,0,1-1.1-1.36,5.21,5.21,0,0,1-.37-2,4.58,4.58,0,0,1,.45-2.08,3.31,3.31,0,0,1,1.23-1.38,3.22,3.22,0,0,1,1.76-.49,3.05,3.05,0,0,1,2.46,1,4.28,4.28,0,0,1,.85,2.81,4.68,4.68,0,0,1-.46,2.11,3.56,3.56,0,0,1-1.26,1.42,3.33,3.33,0,0,1-1.79.5A3.12,3.12,0,0,1,110.61,42.76Zm.33-6a4.67,4.67,0,0,0-.58,2.55,4.56,4.56,0,0,0,.57,2.45,1.74,1.74,0,0,0,1.57.9,1.79,1.79,0,0,0,1.57-.9,4.68,4.68,0,0,0,.58-2.57,4.5,4.5,0,0,0-.56-2.43,1.76,1.76,0,0,0-1.57-.87A1.81,1.81,0,0,0,110.94,36.8Z"/><path class="cls-1" d="M119.82,42.41a3.76,3.76,0,0,1-.71-2.51V36.12l-.73-.13v-.51h2.75V36l-.88.14V40a3.23,3.23,0,0,0,.5,2,1.74,1.74,0,0,0,1.44.62A1.63,1.63,0,0,0,123.6,42a3.32,3.32,0,0,0,.46-1.92V36.13L123.2,36v-.51h2.4V36l-.75.13V40a3.34,3.34,0,0,1-.77,2.4,2.65,2.65,0,0,1-2,.79A2.85,2.85,0,0,1,119.82,42.41Z"/><path class="cls-1" d="M129.75,42.75a3.24,3.24,0,0,1-1.23-1.36,4.92,4.92,0,0,1,.08-4.15A3.34,3.34,0,0,1,130,35.87a4.14,4.14,0,0,1,2-.47,10.18,10.18,0,0,1,2.4.32l-.09,1.78h-.73l-.25-1.24a1.44,1.44,0,0,0-.49-.21,3.2,3.2,0,0,0-.92-.11,2.48,2.48,0,0,0-1.33.37,2.52,2.52,0,0,0-.9,1.11,4.41,4.41,0,0,0-.32,1.77,5.69,5.69,0,0,0,.26,1.75,2.89,2.89,0,0,0,.8,1.27,1.94,1.94,0,0,0,1.33.48,3.48,3.48,0,0,0,.93-.12,1.73,1.73,0,0,0,.68-.31V40l-1.29-.1v-.61h3v.61l-.59.09v2.77a4,4,0,0,0-.76.18,9.12,9.12,0,0,1-1,.25,5.67,5.67,0,0,1-1,.1A3.62,3.62,0,0,1,129.75,42.75Z"/><path class="cls-1" d="M138.53,36.12l-.81-.13v-.51h2.8V36l-.88.13v2.77h3.62V36.12l-.83-.13v-.51h2.76V36l-.82.13v6.4l.82.11v.5h-2.77v-.5l.84-.11v-3h-3.62v3l.89.11v.5H137.7v-.5l.83-.11Z"/><path class="cls-1" d="M155,36l-1.77.06-.36,2.15h-.68l.18-2.76h6.41l.13,2.76h-.65l-.34-2.15L156.09,36v6.49l1.46.11v.5h-3.94v-.5l1.34-.11Z"/><path class="cls-1" d="M162.51,36.12l-.95-.13v-.51h3V36l-1,.13v6.4l1,.12v.49h-3v-.5l.95-.11Z"/><path class="cls-1" d="M168.74,36.12,167.62,36v-.51h2.73l1.45,4.63.34,1.31.31-1.31,1.45-4.63h2.7V36l-1.13.13.82,6.39.9.12v.5h-3v-.5l.94-.11-.46-4.62-.22-2-.43,1.48-1.72,5.39h-.67L170,37.85l-.61-2-.18,2-.41,4.62,1,.11v.5h-2.69v-.5l.87-.11Z"/><path class="cls-1" d="M180.49,36.12l-.85-.13v-.51h5.24l.15,1.6h-.59l-.3-1L181.59,36v2.9l1.72,0,.14-.86H184V40.4h-.57l-.14-.88-1.72,0v3.07l2.9-.11.55-1.3.61.19-.3,1.79h-5.72v-.5l.86-.11Z"/></svg>