<?xml version="1.0" encoding="utf-8"?>
<!-- Generator: Adobe Illustrator 24.1.0, SVG Export Plug-In . SVG Version: 6.00 Build 0)  -->
<svg version="1.1" id="Ebene_1" xmlns="http://www.w3.org/2000/svg" xmlns:xlink="http://www.w3.org/1999/xlink" x="0px" y="0px"
	 viewBox="0 0 72.94 59.12" style="enable-background:new 0 0 72.94 59.12;" xml:space="preserve">
<style type="text/css">
	.st0{fill:#FFFFFF;}
</style>
<g>
	<path class="st0" d="M12.87,22.82c-1.41,1.77-3.09,3.15-5.38,3.15c-1.55,0-2.92-0.52-2.92-2.36c0-0.46,0.2-1.51,0.43-2.56
		l1.67-7.75H4.07l0.23-0.82h3.02c1.02,0,2-0.13,3.02-0.13l-2,8.5c-0.26,1.18-0.49,2.3-0.49,2.72c0,0.85,0.76,1.05,1.41,1.05
		c0.56,0,1.25-0.43,1.71-0.72c1.48-0.95,2.17-2.76,2.56-4.4l1.67-7.02h3.41l-2.2,9.62c-0.23,0.99-0.36,1.74-0.33,1.97
		c0.03,0.33,0.36,0.53,0.66,0.53c1.18,0,2.63-2.72,3.05-3.68l0.72,0.4c-0.85,2.2-2.66,4.66-5.19,4.66
		C13.36,25.97,12.84,24.72,12.87,22.82"/>
	<path class="st0" d="M21.56,11.8l1.17-8.66h1.09L23.34,6.5l0.02,0.02c0.47-0.47,0.84-0.63,1.37-0.63c1.18,0,1.99,1.06,1.99,2.57
		c0,1.51-0.83,3.42-3.67,3.42C22.51,11.89,21.88,11.85,21.56,11.8 M23.2,7.54l-0.49,3.47h0.59c1.48,0,2.33-1.04,2.33-2.56
		c0-1.03-0.47-1.62-1.22-1.62C24.06,6.82,23.28,7.06,23.2,7.54"/>
</g>
<rect x="4.15" y="39.28" class="st0" width="64.41" height="0.68"/>
<g>
	<path class="st0" d="M4.28,45.18l0.39-2.92h0.37l-0.16,1.13l0.01,0.01c0.15-0.16,0.28-0.21,0.46-0.21c0.4,0,0.67,0.36,0.67,0.87
		c0,0.51-0.28,1.15-1.24,1.15C4.6,45.21,4.39,45.19,4.28,45.18 M4.84,43.74l-0.16,1.17h0.2c0.5,0,0.78-0.35,0.78-0.86
		c0-0.35-0.16-0.55-0.41-0.55C5.12,43.5,4.86,43.58,4.84,43.74"/>
	<path class="st0" d="M4.39,49.32v-1.84h0.79v1.7c0,0.39,0.11,0.72,0.51,0.72c0.4,0,0.51-0.33,0.51-0.72v-1.7h0.79v1.84
		c0,0.81-0.53,1.18-1.3,1.18C4.91,50.5,4.39,50.13,4.39,49.32"/>
</g>
<polygon class="st0" points="9.78,50.45 8.74,48.42 8.74,48.42 8.76,50.45 8.04,50.45 8.04,47.49 9.04,47.49 10.04,49.5 10.05,49.5 
	10.04,47.49 10.76,47.49 10.76,50.45 "/>
<rect x="11.93" y="47.49" class="st0" width="0.79" height="2.96"/>
<polygon class="st0" points="14.53,50.45 13.54,47.49 14.38,47.49 15.03,49.81 15.04,49.81 15.7,47.49 16.51,47.49 15.5,50.45 "/>
<polygon class="st0" points="17.31,50.45 17.31,47.49 19.39,47.49 19.39,48.05 18.1,48.05 18.1,48.66 19.32,48.66 19.32,49.22 
	18.1,49.22 18.1,49.89 19.44,49.89 19.44,50.45 "/>
<g>
	<path class="st0" d="M22.1,50.45l-0.17-0.53c-0.16-0.51-0.26-0.64-0.56-0.64H21.2v1.17h-0.79v-2.96h1.41
		c0.52,0,0.95,0.24,0.95,0.75c0,0.39-0.19,0.66-0.57,0.75v0.01c0.26,0.07,0.27,0.29,0.42,0.65l0.29,0.81H22.1z M21.2,48.72h0.21
		c0.26,0,0.58-0.01,0.58-0.34c0-0.28-0.27-0.33-0.58-0.33H21.2V48.72z"/>
	<path class="st0" d="M23.74,50.37l0.07-0.65c0.2,0.11,0.49,0.19,0.81,0.19c0.25,0,0.49-0.05,0.49-0.29c0-0.55-1.4-0.2-1.4-1.28
		c0-0.71,0.69-0.91,1.29-0.91c0.28,0,0.56,0.04,0.76,0.11l-0.05,0.61c-0.2-0.09-0.43-0.14-0.66-0.14c-0.2,0-0.53,0.02-0.53,0.28
		c0,0.48,1.4,0.16,1.4,1.22c0,0.77-0.64,0.98-1.3,0.98C24.35,50.5,24,50.46,23.74,50.37"/>
</g>
<rect x="26.92" y="47.49" class="st0" width="0.79" height="2.96"/>
<polygon class="st0" points="29.18,50.45 29.18,48.07 28.45,48.07 28.45,47.49 30.69,47.49 30.69,48.07 29.97,48.07 29.97,50.45 "/>
<path class="st0" d="M33.4,50.45l-0.22-0.63h-1.11l-0.23,0.63h-0.8l1.12-2.96h0.97l1.14,2.96H33.4z M32.26,49.26H33l-0.35-1.16
	h-0.01L32.26,49.26z M32.84,46.72h0.61v0.61h-0.61V46.72z M31.87,46.72h0.61v0.61h-0.61V46.72z"/>
<polygon class="st0" points="35.36,50.45 35.36,48.07 34.63,48.07 34.63,47.49 36.87,47.49 36.87,48.07 36.14,48.07 36.14,50.45 "/>
<g>
	<path class="st0" d="M4.41,55.74v-2.96h1.36c0.55,0,0.96,0.24,0.96,0.75c0,0.38-0.19,0.58-0.52,0.69v0.01
		c0.4,0.08,0.6,0.29,0.6,0.65c0,0.71-0.62,0.86-1.15,0.86H4.41z M5.2,55.19h0.23c0.29,0,0.59-0.04,0.59-0.34
		c0-0.32-0.31-0.35-0.58-0.35H5.2V55.19z M5.2,53.96h0.22c0.26,0,0.52-0.06,0.52-0.31c0-0.27-0.25-0.3-0.51-0.3H5.2V53.96z"/>
</g>
<polygon class="st0" points="7.7,52.79 7.7,55.74 9.83,55.74 9.83,55.19 8.49,55.19 8.49,54.52 9.71,54.52 9.71,53.96 8.49,53.96 
	8.49,53.35 9.78,53.35 9.78,52.79 "/>
<g>
	<path class="st0" d="M12.54,55.74l-0.17-0.53c-0.16-0.51-0.27-0.64-0.56-0.64h-0.17v1.17h-0.79v-2.96h1.41
		c0.52,0,0.95,0.24,0.95,0.75c0,0.4-0.19,0.66-0.57,0.75v0.01c0.25,0.07,0.27,0.29,0.42,0.65l0.29,0.8H12.54z M11.65,54.02h0.21
		c0.25,0,0.58-0.01,0.58-0.34c0-0.28-0.28-0.33-0.58-0.33h-0.21V54.02z"/>
</g>
<polygon class="st0" points="16.24,52.79 16.25,54.8 16.24,54.8 15.24,52.79 14.24,52.79 14.24,55.74 14.96,55.74 14.94,53.72 
	14.94,53.72 15.98,55.74 16.96,55.74 16.96,52.79 "/>
</svg>
